<svg xmlns="http://www.w3.org/2000/svg" width="512" height="512" viewBox="0 0 512 512"><defs><linearGradient id="pc-bg" x2="0" y2="1"><stop stop-color="#24524e"/><stop offset="1" stop-color="#111925"/></linearGradient><linearGradient id="pc-gold" x2="1" y2="1"><stop stop-color="#ffedb2"/><stop offset=".5" stop-color="#deb365"/><stop offset="1" stop-color="#95602e"/></linearGradient></defs><rect x="8" y="8" width="496" height="496" rx="90" fill="url(#pc-bg)"/><rect x="23" y="23" width="466" height="466" rx="76" fill="none" stroke="#9cba9c" stroke-width="4"/><title>PC Manager — L’aventurier de Glorantha</title><defs><radialGradient id="pc-shield" cx=".36" cy=".3"><stop stop-color="#ba854b"/><stop offset="1" stop-color="#593a29"/></radialGradient></defs><path d="m105 432 274-325" stroke="#6b4732" stroke-width="17" stroke-linecap="round"/><path d="m105 432 274-325" stroke="#d4ad71" stroke-width="5" stroke-linecap="round"/><path d="m361 108 43-39-18 56-27 14z" fill="url(#pc-gold)" stroke="#f2d39e" stroke-width="3"/><circle cx="250" cy="264" r="155" fill="url(#pc-gold)" stroke="#edc792" stroke-width="5"/><circle cx="250" cy="264" r="136" fill="url(#pc-shield)" stroke="#66432f" stroke-width="4"/><circle cx="250" cy="264" r="121" fill="none" stroke="#f3d09a" stroke-opacity=".35" stroke-width="3"/><g fill="#f6dca6" stroke="#69482e" stroke-width="2"><circle cx="250" cy="120" r="6"/><circle cx="352" cy="162" r="6"/><circle cx="394" cy="264" r="6"/><circle cx="352" cy="366" r="6"/><circle cx="250" cy="408" r="6"/><circle cx="148" cy="366" r="6"/><circle cx="106" cy="264" r="6"/><circle cx="148" cy="162" r="6"/></g><g fill="none" stroke="#f9e4b4" stroke-width="16" stroke-linecap="round" stroke-linejoin="round"><circle cx="250" cy="194" r="25"/><path d="M250 223v68m-54-40 54 20 54-20m-54 40-46 55m46-55 46 55"/></g><path d="M63 69h18M72 60v18M431 443h18M440 434v18" stroke="#9cba9c" stroke-width="4" stroke-linecap="round"/></svg>